<svg xmlns="http://www.w3.org/2000/svg" xmlns:xlink="http://www.w3.org/1999/xlink" preserveAspectRatio="xMidYMid" width="32" height="26" viewBox="0 0 32 26">
  <defs>
    <style>
      .cls-1 {
        fill: #f0f0f0;
        filter: url(#color-overlay-1);
        fill-rule: evenodd;
      }
    </style>

    <filter id="color-overlay-1" filterUnits="userSpaceOnUse">
      <feFlood flood-color="#333"/>
      <feComposite operator="in" in2="SourceGraphic"/>
      <feBlend in2="SourceGraphic" result="solidFill"/>
    </filter>
  </defs>
  <path d="M0,17 C0,23 3,26 7,26 C10,26 13,23 13,20 C13,16 11,14 7,14 C7,14 6,14 6,14 C6,10 10,5 13,3 L9,-0.008 C4,3 0,10 0,17 ZM18,17 C18,23 22,26 26,26 C29,26 32,23 32,20 C32,16 30,14 26,14 C26,14 25,14 25,14 C25,10 29,5 32,3 L28,-0.008 C23.000,3 18,10 18,17 Z" class="cls-1"/>
</svg>
