<?xml version="1.0" encoding="utf-8"?>
<!-- Generator: Adobe Illustrator 18.1.1, SVG Export Plug-In . SVG Version: 6.00 Build 0)  -->
<svg version="1.1" id="Layer_1" xmlns="http://www.w3.org/2000/svg" xmlns:xlink="http://www.w3.org/1999/xlink" x="0px" y="0px"
	 width="22px" height="12px" viewBox="0 0 22 12" enable-background="new 0 0 22 12" xml:space="preserve">
<g>
	<path fill="#000000" d="M22,1.7L20.8,0l-7,5.2L15,6.8L22,1.7z"/>
	<path fill="#000000" d="M22,10.3L20.8,12l-7-5.2L15,5.2L22,10.3z"/>
	<path fill="#000000" d="M15,1.7L13.8,0l-7,5.2L8,6.8L15,1.7z"/>
	<path fill="#000000" d="M15,10.3L13.8,12l-7-5.2L8,5.2L15,10.3z"/>
	<path fill="#000000" d="M8.2,1.7L7,0L0,5.2l1.2,1.7L8.2,1.7z"/>
	<path fill="#000000" d="M8.2,10.3L7,12L0,6.8l1.2-1.7L8.2,10.3z"/>
	<path fill="#000000" d="M16,7V5H0V7H16z"/>
</g>
</svg>
