<?xml version="1.0" encoding="utf-8"?>
<!-- Generator: Adobe Illustrator 17.0.0, SVG Export Plug-In . SVG Version: 6.00 Build 0)  -->
<!DOCTYPE svg PUBLIC "-//W3C//DTD SVG 1.1//EN" "http://www.w3.org/Graphics/SVG/1.1/DTD/svg11.dtd">
<svg version="1.1" id="Слой_1" xmlns="http://www.w3.org/2000/svg" xmlns:xlink="http://www.w3.org/1999/xlink" x="0px" y="0px"
	 width="150px" height="150px" viewBox="0 0 150 150" enable-background="new 0 0 150 150" xml:space="preserve">
<g>
	<path d="M32.89,90.595c0,0.301-0.165,0.45-0.495,0.45h-1.35c-0.27,0-0.436-0.104-0.495-0.314c-0.15-0.24-0.322-0.412-0.518-0.518
		s-0.397-0.165-0.607-0.181c-0.21-0.015-0.412,0.008-0.607,0.067c-0.195,0.061-0.353,0.121-0.473,0.181
		c-1.2,0.66-2.729,0.989-4.59,0.989c-1.23,0-2.378-0.135-3.442-0.404c-1.065-0.271-1.995-0.683-2.79-1.237
		c-0.795-0.556-1.425-1.261-1.89-2.115c-0.466-0.854-0.698-1.853-0.698-2.993V63.64c0-2.31,0.758-4.02,2.272-5.13
		c1.515-1.109,3.683-1.665,6.503-1.665c2.79,0,5.018,0.563,6.683,1.688s2.497,2.828,2.497,5.107v3.06h-4.05
		c-0.84,0-1.439-0.158-1.8-0.473s-0.54-0.833-0.54-1.553V64.63c0-0.839-0.263-1.477-0.787-1.913
		c-0.525-0.434-1.193-0.652-2.003-0.652c-0.84,0-1.5,0.21-1.979,0.63c-0.48,0.42-0.721,1.11-0.721,2.07v17.91
		c0,1.2,0.277,2.056,0.833,2.565c0.555,0.51,1.237,0.765,2.047,0.765c0.84,0,1.537-0.263,2.093-0.788
		c0.555-0.523,0.833-1.312,0.833-2.361v-3.69c0-0.329-0.068-0.577-0.203-0.743c-0.135-0.164-0.322-0.321-0.563-0.472
		c-0.54-0.3-0.81-1.274-0.81-2.925v-1.62h6.255c0.45,0,0.794,0.143,1.035,0.428c0.239,0.286,0.359,0.652,0.359,1.103V90.595z"/>
	<path d="M44.139,86.41v4.229c0,0.241-0.3,0.428-0.899,0.563c-0.601,0.136-1.26,0.203-1.98,0.203c-0.75,0-1.41-0.061-1.979-0.181
		c-0.57-0.12-0.855-0.299-0.855-0.54V90.64V86.5c0-0.27,0.3-0.457,0.9-0.563c0.6-0.105,1.244-0.158,1.935-0.158
		c0.721,0,1.38,0.061,1.98,0.181C43.839,86.08,44.139,86.23,44.139,86.41z"/>
	<path d="M56.829,85.825c0.09,0.12,0.195,0.225,0.315,0.315c0.239,0.18,0.479,0.435,0.72,0.764c0.24,0.331,0.36,0.751,0.36,1.261V91
		h-9.226v-2.835c0-0.51,0.12-0.93,0.36-1.261c0.239-0.329,0.479-0.584,0.72-0.764c0.15-0.091,0.263-0.195,0.338-0.315
		c0.074-0.12,0.112-0.345,0.112-0.675V63.235V63.19c0-0.299-0.038-0.51-0.112-0.63c-0.075-0.12-0.188-0.24-0.338-0.36
		c-0.24-0.18-0.48-0.435-0.72-0.765c-0.24-0.33-0.36-0.75-0.36-1.26V57.34h9.226v2.835c0,0.511-0.12,0.931-0.36,1.26
		c-0.24,0.331-0.48,0.585-0.72,0.765c-0.12,0.12-0.226,0.24-0.315,0.36c-0.09,0.12-0.135,0.331-0.135,0.63v0.045V85.15
		C56.694,85.48,56.739,85.705,56.829,85.825z"/>
	<path d="M68.798,86.41v4.229c0,0.241-0.3,0.428-0.899,0.563c-0.601,0.136-1.26,0.203-1.98,0.203c-0.75,0-1.41-0.061-1.979-0.181
		c-0.57-0.12-0.855-0.299-0.855-0.54V90.64V86.5c0-0.27,0.3-0.457,0.9-0.563c0.6-0.105,1.244-0.158,1.935-0.158
		c0.721,0,1.38,0.061,1.98,0.181C68.498,86.08,68.798,86.23,68.798,86.41z"/>
	<path d="M83.379,91.315c-2.79,0-4.995-0.623-6.615-1.868c-1.62-1.244-2.431-3.021-2.431-5.332v-19.98
		c0-2.31,0.803-4.095,2.408-5.355c1.604-1.26,3.817-1.89,6.638-1.89c2.85,0,5.047,0.63,6.592,1.89
		c1.545,1.26,2.317,3.045,2.317,5.355v19.98c0,2.311-0.78,4.088-2.34,5.332C88.389,90.692,86.198,91.315,83.379,91.315z
		 M86.033,64.675c0-0.54-0.105-0.974-0.314-1.305c-0.211-0.33-0.458-0.585-0.743-0.765s-0.577-0.307-0.877-0.382
		c-0.301-0.075-0.54-0.113-0.72-0.113c-0.181,0-0.421,0.03-0.721,0.09s-0.601,0.173-0.899,0.337
		c-0.301,0.165-0.563,0.398-0.788,0.697c-0.225,0.3-0.337,0.706-0.337,1.215v19.26c0,0.45,0.09,0.825,0.27,1.125
		s0.405,0.54,0.675,0.72c0.271,0.18,0.57,0.315,0.9,0.405s0.63,0.136,0.9,0.136c0.63,0,1.229-0.181,1.8-0.541
		c0.569-0.359,0.854-0.99,0.854-1.89V64.675z"/>
	<path d="M103.537,86.41v4.229c0,0.241-0.3,0.428-0.899,0.563c-0.601,0.136-1.26,0.203-1.98,0.203c-0.75,0-1.41-0.061-1.979-0.181
		c-0.57-0.12-0.855-0.299-0.855-0.54V90.64V86.5c0-0.27,0.3-0.457,0.9-0.563c0.6-0.105,1.244-0.158,1.935-0.158
		c0.721,0,1.38,0.061,1.98,0.181C103.237,86.08,103.537,86.23,103.537,86.41z"/>
	<path d="M125.228,83.215v6.66c0,0.36-0.098,0.63-0.292,0.81c-0.196,0.181-0.458,0.271-0.788,0.271h-14.625
		c-0.33,0-0.601-0.112-0.81-0.338c-0.21-0.225-0.315-0.487-0.315-0.787V85.6c0-0.33,0.015-0.539,0.045-0.629
		c0.03-0.091,0.061-0.165,0.09-0.226c1.801-3.87,3.421-7.335,4.86-10.395c0.6-1.29,1.192-2.565,1.777-3.825
		c0.585-1.26,1.117-2.392,1.598-3.397c0.479-1.005,0.862-1.822,1.147-2.453c0.285-0.63,0.442-0.974,0.473-1.035
		c0.06-0.18,0.029-0.337-0.09-0.473c-0.12-0.135-0.331-0.203-0.63-0.203h-3.061c-0.27,0-0.503,0.045-0.697,0.135
		c-0.195,0.09-0.292,0.255-0.292,0.495v1.53h-2.205c-0.781,0-1.389-0.232-1.823-0.697c-0.435-0.465-0.652-1.042-0.652-1.733V58.42
		c0-0.72,0.33-1.08,0.99-1.08h2.97h10.62c0.36,0,0.652,0.105,0.878,0.315c0.225,0.21,0.337,0.495,0.337,0.855v4.185
		c0,0.151-0.008,0.278-0.022,0.383c-0.016,0.105-0.038,0.202-0.067,0.292c-0.03,0.12-0.045,0.21-0.045,0.27
		c-1.681,3.84-3.195,7.275-4.545,10.305c-0.57,1.291-1.133,2.558-1.688,3.803c-0.556,1.244-1.051,2.361-1.485,3.352
		s-0.795,1.801-1.08,2.43c-0.285,0.631-0.427,0.961-0.427,0.99c-0.061,0.211-0.061,0.421,0,0.631c0.06,0.21,0.209,0.314,0.449,0.314
		h4.681c0-0.6,0.164-1.125,0.495-1.574c0.329-0.451,0.959-0.676,1.89-0.676H125.228z"/>
	<path d="M135.802,86.41v4.229c0,0.241-0.3,0.428-0.899,0.563c-0.601,0.136-1.26,0.203-1.98,0.203c-0.75,0-1.41-0.061-1.979-0.181
		c-0.57-0.12-0.855-0.299-0.855-0.54V90.64V86.5c0-0.27,0.3-0.457,0.9-0.563c0.6-0.105,1.244-0.158,1.935-0.158
		c0.721,0,1.38,0.061,1.98,0.181C135.502,86.08,135.802,86.23,135.802,86.41z"/>
</g>
</svg>
