<?xml version="1.0" encoding="utf-8"?>
<svg version="1.0" id="Layer_1" xmlns="http://www.w3.org/2000/svg" xmlns:xlink="http://www.w3.org/1999/xlink" x="0px" y="0px"
	 viewBox="0 0 8 15" width="8" height="15" enable-background="new 0 0 8 15" xml:space="preserve">
<path fill="#333" d="M7.8,4.3L7.4,4.7C7.4,4.8,7.3,4.8,7.2,4.8c-0.1,0-0.1,0-0.2-0.1L4,1.7l-3.1,3C0.9,4.8,0.8,4.8,0.7,4.8
	s-0.1,0-0.2-0.1L0.2,4.3C0.1,4.3,0.1,4.2,0.1,4.2c0-0.1,0-0.1,0.1-0.2l3.6-3.6C3.9,0.4,3.9,0.3,4,0.3c0.1,0,0.1,0,0.2,0.1L7.8,4
	C7.9,4,7.9,4.1,7.9,4.2C7.9,4.2,7.9,4.3,7.8,4.3L7.8,4.3z"/>
<path fill="#333" d="M7.8,10.5l-0.4-0.4c-0.1-0.1-0.1-0.1-0.2-0.1c-0.1,0-0.1,0-0.2,0.1L4,13.2l-3.1-3.1
	c-0.1-0.1-0.1-0.1-0.2-0.1c-0.1,0-0.1,0-0.2,0.1l-0.4,0.4c-0.1,0.1-0.1,0.1-0.1,0.2c0,0.1,0,0.1,0.1,0.2l3.6,3.6
	c0.1,0.1,0.1,0.1,0.2,0.1s0.1,0,0.2-0.1l3.6-3.6c0.1-0.1,0.1-0.1,0.1-0.2C7.9,10.6,7.9,10.6,7.8,10.5L7.8,10.5z"/>
</svg>
