<?xml version="1.0" encoding="utf-8"?>
<svg version="1.1" id="Layer_1" xmlns="http://www.w3.org/2000/svg" xmlns:xlink="http://www.w3.org/1999/xlink" x="0px" y="0px"
	 width="12px" height="22px" viewBox="0 0 12 22" enable-background="new 0 0 12 22" xml:space="preserve">
<g>
	<path fill="#FFFFFF" d="M5.2,7l1.7,1.2l5.1-7L10.3,0L5.2,7z"/>
	<path fill="#FFFFFF" d="M6.9,7L5.2,8.2L0,1.2L1.8,0L6.9,7z"/>
	<path fill="#FFFFFF" d="M5.2,14l1.7,1.2l5.1-7L10.3,7L5.2,14z"/>
	<path fill="#FFFFFF" d="M6.9,14l-1.7,1.2L0,8.2L1.8,7L6.9,14z"/>
	<path fill="#FFFFFF" d="M5.2,20.8L6.8,22l5.2-7l-1.7-1.2L5.2,20.8z"/>
	<path fill="#FFFFFF" d="M6.8,20.8L5.2,22L0,15l1.7-1.2L6.8,20.8z"/>
	<path fill="#FFFFFF" d="M5,22h2V6H5V22z"/>
</g>
</svg>
